<svg xmlns="http://www.w3.org/2000/svg" viewBox="4.5 11.600000381469727 377.25 35" data-asc="0.932" width="377.25" height="35"><defs/><g fill="#ffffff"><g transform="translate(0, 0)"><path d="M17.50 36.85L37.45 36.85Q38 36.85 38.40 37.25Q38.80 37.65 38.80 38.20L38.80 45.25Q38.80 45.80 38.40 46.20Q38 46.60 37.45 46.60L5.85 46.60Q5.30 46.60 4.90 46.20Q4.50 45.80 4.50 45.25L4.50 12.95Q4.50 12.40 4.90 12Q5.30 11.60 5.85 11.60L36.95 11.60Q37.50 11.60 37.90 12Q38.30 12.40 38.30 12.95L38.30 20Q38.30 20.55 37.90 20.95Q37.50 21.35 36.95 21.35L17.50 21.35L17.50 24.50L34.20 24.50Q34.75 24.50 35.15 24.90Q35.55 25.30 35.55 25.85L35.55 32.35Q35.55 32.90 35.15 33.30Q34.75 33.70 34.20 33.70L17.50 33.70L17.50 36.85ZM83.60 45.05Q83.70 45.25 83.70 45.60Q83.70 45.95 83.38 46.27Q83.05 46.60 82.60 46.60L71.25 46.60Q69.75 46.60 69.15 45.35L64.75 35.45L60.55 35.45L60.55 45.25Q60.55 45.80 60.15 46.20Q59.75 46.60 59.20 46.60L48.40 46.60Q47.85 46.60 47.45 46.20Q47.05 45.80 47.05 45.25L47.05 12.95Q47.05 12.40 47.45 12Q47.85 11.60 48.40 11.60L67.85 11.60Q74.70 11.60 78.70 14.85Q82.70 18.10 82.70 23.70Q82.70 30.50 77.45 33.55L83.60 45.05M60.55 20.90L60.55 26.20L66.80 26.20Q67.90 26.20 68.50 25.48Q69.10 24.75 69.10 23.65Q69.10 22.55 68.53 21.73Q67.95 20.90 66.80 20.90L60.55 20.90ZM122.10 21.85L113.05 21.85L113.05 36.35L122.10 36.35Q122.65 36.35 123.05 36.75Q123.45 37.15 123.45 37.70L123.45 45.25Q123.45 45.80 123.05 46.20Q122.65 46.60 122.10 46.60L90.40 46.60Q89.85 46.60 89.45 46.20Q89.05 45.80 89.05 45.25L89.05 37.70Q89.05 37.15 89.45 36.75Q89.85 36.35 90.40 36.35L99.55 36.35L99.55 21.85L90.40 21.85Q89.85 21.85 89.45 21.45Q89.05 21.05 89.05 20.50L89.05 12.95Q89.05 12.40 89.45 12Q89.85 11.60 90.40 11.60L122.10 11.60Q122.65 11.60 123.05 12Q123.45 12.40 123.45 12.95L123.45 20.50Q123.45 21.05 123.05 21.45Q122.65 21.85 122.10 21.85ZM155.10 11.60L164.40 11.60Q164.95 11.60 165.35 12Q165.75 12.40 165.75 12.95L165.75 45.25Q165.75 45.80 165.35 46.20Q164.95 46.60 164.40 46.60L156.35 46.60Q155.15 46.60 154.35 45.55L143.45 31.65L143.45 45.25Q143.45 45.80 143.05 46.20Q142.65 46.60 142.10 46.60L132.80 46.60Q132.25 46.60 131.85 46.20Q131.45 45.80 131.45 45.25L131.45 12.95Q131.45 12.40 131.85 12Q132.25 11.60 132.80 11.60L140.90 11.60Q142.10 11.60 142.85 12.60L153.75 27.65L153.75 12.95Q153.75 12.40 154.15 12Q154.55 11.60 155.10 11.60ZM181.80 46.60L172.35 46.60Q171.90 46.60 171.57 46.27Q171.25 45.95 171.25 45.65Q171.25 45.35 171.30 45.20L182.20 13.25Q182.65 11.60 184.45 11.60L198.35 11.60Q200.15 11.60 200.60 13.25L211.50 45.20Q211.55 45.35 211.55 45.65Q211.55 45.95 211.22 46.27Q210.90 46.60 210.45 46.60L201 46.60Q199.40 46.60 198.75 44.90L197.50 41.40L185.30 41.40L184.05 44.90Q183.40 46.60 181.80 46.60M194.95 31.65L191.40 21.25L187.85 31.65L194.95 31.65ZM284.10 11.60L294.55 11.60Q295 11.60 295.32 11.92Q295.65 12.25 295.65 12.60Q295.65 12.95 295.50 13.25L282.90 34.10L282.90 45.25Q282.90 45.80 282.50 46.20Q282.10 46.60 281.55 46.60L270.90 46.60Q270.35 46.60 269.95 46.20Q269.55 45.80 269.55 45.25L269.55 34.10L257 13.25Q256.85 12.95 256.85 12.60Q256.85 12.25 257.18 11.92Q257.50 11.60 257.95 11.60L268.50 11.60Q269.90 11.60 270.55 12.75L276.20 22.65L282 12.85Q282.75 11.60 284.10 11.60ZM334.60 21.85L325.55 21.85L325.55 36.35L334.60 36.35Q335.15 36.35 335.55 36.75Q335.95 37.15 335.95 37.70L335.95 45.25Q335.95 45.80 335.55 46.20Q335.15 46.60 334.60 46.60L302.90 46.60Q302.35 46.60 301.95 46.20Q301.55 45.80 301.55 45.25L301.55 37.70Q301.55 37.15 301.95 36.75Q302.35 36.35 302.90 36.35L312.05 36.35L312.05 21.85L302.90 21.85Q302.35 21.85 301.95 21.45Q301.55 21.05 301.55 20.50L301.55 12.95Q301.55 12.40 301.95 12Q302.35 11.60 302.90 11.60L334.60 11.60Q335.15 11.60 335.55 12Q335.95 12.40 335.95 12.95L335.95 20.50Q335.95 21.05 335.55 21.45Q335.15 21.85 334.60 21.85ZM347.65 11.60L366.35 11.60Q373.45 11.60 377.60 15.05Q381.75 18.50 381.75 23.90Q381.75 29.30 378.25 32.48Q374.75 35.65 366.35 35.65L359.75 35.65L359.75 45.25Q359.75 45.80 359.35 46.20Q358.95 46.60 358.40 46.60L347.65 46.60Q347.10 46.60 346.70 46.20Q346.30 45.80 346.30 45.25L346.30 12.95Q346.30 12.40 346.70 12Q347.10 11.60 347.65 11.60M359.80 20.90L359.80 26.40L366.15 26.40Q367.30 26.40 368.02 25.70Q368.75 25 368.75 23.75Q368.75 22.50 368.05 21.70Q367.35 20.90 366.15 20.90L359.80 20.90Z"/></g></g></svg>